<svg width="149" height="118" viewBox="0 0 149 118" fill="none" xmlns="http://www.w3.org/2000/svg">
<path d="M25.8248 56.864C34.4648 51.536 44.1128 41.024 44.1128 29.72C44.1128 20.36 37.5608 14.168 28.3448 14.168C17.1848 14.168 11.1368 23.24 11.1368 32.456L19.6328 33.104C19.8488 27.92 21.8648 22.52 28.2008 22.52C33.1688 22.52 35.4728 25.832 35.4728 30.368C35.4728 42.104 19.9208 52.472 11.0648 57.872V65H46.2008V56.864H25.8248ZM70.2483 65.72C79.9683 65.72 88.8243 60.536 88.8243 50.168C88.8243 44.696 86.3763 40.304 81.5523 37.712C84.5043 35.624 86.3763 32.528 86.3763 28.208C86.3763 19.352 78.6003 14.096 70.2483 14.096C61.8963 14.096 54.1203 19.352 54.1203 28.208C54.1203 32.528 55.9923 35.624 58.9443 37.712C54.1203 40.304 51.6723 44.696 51.6723 50.168C51.6723 60.608 60.6003 65.72 70.2483 65.72ZM70.2483 35.264C65.7843 35.264 62.7603 32.816 62.7603 28.784C62.7603 24.824 65.8563 22.376 70.2483 22.376C74.6403 22.376 77.7363 24.824 77.7363 28.784C77.7363 32.816 74.7123 35.264 70.2483 35.264ZM70.2483 57.512C64.6323 57.512 60.3123 54.776 60.3123 49.376C60.3123 44.12 64.4163 41.168 70.2483 41.168C76.0803 41.168 80.1843 44.12 80.1843 49.376C80.1843 54.776 75.8643 57.512 70.2483 57.512ZM141.024 65L121.872 33.824L140.52 14.816H128.712L106.176 38.432V14.816H97.1758V65H106.176V49.736L115.752 40.016L130.584 65H141.024Z" fill="#2B59FF"/>
<path d="M56.133 112.26C59.573 112.26 61.373 110.44 61.373 106.86V98.06H59.233V106.7C59.233 109.18 58.313 110.18 56.133 110.18C53.953 110.18 53.053 109.2 53.053 106.72V98.06H50.913V106.96C50.913 110.48 52.713 112.26 56.133 112.26ZM67.5644 112.18C69.4444 112.18 71.3044 111.18 71.3044 108.98C71.3044 105.34 65.9644 106.42 65.9644 104.64C65.9644 104.04 66.5444 103.62 67.4644 103.62C68.6044 103.62 69.2244 104.24 69.6044 104.94L71.2044 104.06C70.4844 102.7 69.2044 101.96 67.5444 101.96C65.6044 101.96 64.0044 102.96 64.0044 104.8C64.0044 108.4 69.2844 107.12 69.2844 109.1C69.2844 109.8 68.6644 110.44 67.4844 110.44C66.0844 110.44 65.4244 109.56 65.1244 108.74L63.4644 109.48C63.9444 111.02 65.5244 112.18 67.5644 112.18ZM81.7478 106.82C81.7478 104.24 80.3478 101.96 77.2878 101.96C74.1478 101.96 72.7078 104.48 72.7078 107.12C72.7078 109.82 74.1878 112.18 77.4478 112.18C79.0678 112.18 80.3078 111.66 81.4278 110.44L79.9878 109.2C79.2478 110.04 78.4278 110.32 77.4678 110.32C75.7878 110.32 74.8478 109.3 74.7678 107.72H81.6878C81.7278 107.42 81.7478 107.12 81.7478 106.82ZM74.7678 106.06C74.9078 104.84 75.7078 103.68 77.2878 103.68C78.7478 103.68 79.7278 104.62 79.7678 106.02V106.06H74.7678ZM88.7966 101.96C87.7166 101.96 86.5766 102.52 86.0766 103.76V102.14H83.9966V112H86.0566V106.86C86.0566 104.9 86.9166 103.92 88.3966 103.92C88.8566 103.92 89.2366 104.04 89.6166 104.26L90.6166 102.46C90.0166 102.1 89.4366 101.96 88.7966 101.96ZM94.7714 112.18C96.6514 112.18 98.5114 111.18 98.5114 108.98C98.5114 105.34 93.1714 106.42 93.1714 104.64C93.1714 104.04 93.7514 103.62 94.6714 103.62C95.8114 103.62 96.4314 104.24 96.8114 104.94L98.4114 104.06C97.6914 102.7 96.4114 101.96 94.7514 101.96C92.8114 101.96 91.2114 102.96 91.2114 104.8C91.2114 108.4 96.4914 107.12 96.4914 109.1C96.4914 109.8 95.8714 110.44 94.6914 110.44C93.2914 110.44 92.6314 109.56 92.3314 108.74L90.6714 109.48C91.1514 111.02 92.7314 112.18 94.7714 112.18Z" fill="#000B33"/>
</svg>
