<svg width="146" height="118" viewBox="0 0 146 118" fill="none" xmlns="http://www.w3.org/2000/svg">
<path d="M26.0528 14.816V17.84C26.0528 21.224 24.4688 22.664 21.0128 22.664H14.3168V29.864H26.0528V65H34.6928V14.816H26.0528ZM68.3883 65.72C78.1803 65.72 86.9643 60.392 86.9643 50.24C86.9643 44.768 84.4443 39.656 78.4683 37.784C82.7163 35.48 84.3003 31.736 84.3003 27.848C84.3003 19.208 76.5963 14.096 68.2443 14.096C59.6043 14.096 52.1883 19.568 52.1883 29L60.6843 29.576C60.7563 25.04 63.7803 22.376 68.3883 22.376C72.4203 22.376 75.6603 24.464 75.6603 28.928C75.6603 32.816 73.1403 35.336 66.1563 35.336V42.176C71.5563 42.176 78.3243 42.392 78.3243 49.304C78.3243 55.064 73.7163 57.44 68.6043 57.44C62.7003 57.44 58.3083 54.344 58.3083 48.656L49.7403 49.16C49.7403 60.248 58.3803 65.72 68.3883 65.72ZM139.524 65L120.372 33.824L139.02 14.816H127.212L104.676 38.432V14.816H95.6758V65H104.676V49.736L114.252 40.016L129.084 65H139.524Z" fill="#FFC83E"/>
<path d="M30.1718 112H34.0918C38.7918 112 41.3318 109.58 41.3318 105.14C41.3318 100.62 38.7118 98.06 34.1118 98.06H30.1718V112ZM32.3118 110.02V100.04H34.0918C37.5518 100.04 39.1718 101.64 39.1718 105.06C39.1718 108.5 37.5518 110.02 33.8918 110.02H32.3118ZM47.8539 112.18C50.8139 112.18 52.7139 109.88 52.7139 107.06C52.7139 104.22 50.8139 101.96 47.8539 101.96C44.8739 101.96 42.9739 104.22 42.9739 107.06C42.9739 109.88 44.8739 112.18 47.8539 112.18ZM47.8539 110.38C45.9339 110.38 45.0339 108.88 45.0339 107.06C45.0339 105.24 45.9339 103.76 47.8539 103.76C49.7539 103.76 50.6539 105.24 50.6539 107.06C50.6539 108.86 49.7739 110.38 47.8539 110.38ZM56.3937 112H58.2537L60.4337 105.04L62.5937 112H64.4737L67.4537 102.14H65.2737L63.4137 108.84L61.3137 102.14H59.5337L57.4137 108.86L55.5937 102.14H53.3937L56.3937 112ZM74.3845 101.96C73.1045 101.96 71.9845 102.42 71.3045 103.36V102.14H69.2445V112H71.3045V107.9C71.3045 105.8 71.6645 103.76 73.7845 103.76C75.4845 103.76 75.7045 105.1 75.7045 106.26V112H77.7645V105.74C77.7645 103.32 76.5645 101.96 74.3845 101.96ZM82.7112 112.18C83.1712 112.18 83.6912 112.08 84.1912 111.9V110.22C83.8912 110.32 83.6112 110.36 83.3712 110.36C82.8512 110.36 82.5912 110.1 82.5912 109.58V98.06H80.5312V109.72C80.5312 111.4 81.4312 112.18 82.7112 112.18ZM90.139 112.18C93.099 112.18 94.999 109.88 94.999 107.06C94.999 104.22 93.099 101.96 90.139 101.96C87.159 101.96 85.259 104.22 85.259 107.06C85.259 109.88 87.159 112.18 90.139 112.18ZM90.139 110.38C88.219 110.38 87.319 108.88 87.319 107.06C87.319 105.24 88.219 103.76 90.139 103.76C92.039 103.76 92.939 105.24 92.939 107.06C92.939 108.86 92.059 110.38 90.139 110.38ZM100.893 101.96C99.1332 101.96 97.7332 102.64 96.5932 104.04L98.0932 105.3C98.8332 104.28 99.7932 103.76 100.873 103.76C102.173 103.76 102.953 104.52 102.953 105.8V106.14H100.653C99.2532 106.14 98.3332 106.3 97.6532 106.64C96.7732 107.08 96.2932 107.92 96.2932 109.04C96.2932 110.92 97.6932 112.18 99.7932 112.18C101.193 112.18 102.333 111.6 102.973 110.6L103.133 112H105.013V105.8C105.013 103.4 103.453 101.96 100.893 101.96ZM100.173 110.44C99.0532 110.44 98.3532 109.92 98.3532 109.08C98.3532 108.66 98.4932 108.32 98.7932 108.12C99.1732 107.82 99.7532 107.72 100.893 107.72H102.953V107.76C102.953 109.32 101.773 110.44 100.173 110.44ZM114.239 98.06V103.24C113.619 102.44 112.479 101.94 111.259 101.94C108.739 101.94 107.039 103.88 107.039 107.06C107.039 110.02 108.519 112.18 111.259 112.18C112.439 112.18 113.559 111.78 114.239 110.9V112H116.299V98.06H114.239ZM111.719 110.3C109.959 110.3 109.099 109.04 109.099 107.08C109.099 105.06 109.999 103.8 111.739 103.8C113.539 103.8 114.439 105.2 114.439 107.08C114.439 108.92 113.579 110.3 111.719 110.3Z" fill="#000B33"/>
</svg>
