<svg width="144" height="118" viewBox="0 0 144 118" fill="none" xmlns="http://www.w3.org/2000/svg">
<path d="M27.5008 30.944C26.6368 30.944 25.8448 31.016 24.9808 31.088L35.5648 14.816H25.6288L10.6528 38.936C8.85284 41.816 7.84484 45.056 7.84484 48.296C7.84484 58.592 16.1248 65.72 26.2048 65.72C36.2128 65.72 44.4208 58.592 44.4208 48.224C44.4208 38.432 37.7968 30.944 27.5008 30.944ZM26.2048 57.44C20.8768 57.44 16.7008 53.984 16.7008 48.224C16.7008 42.464 20.8768 39.008 26.2048 39.008C31.4608 39.008 35.6368 42.464 35.6368 48.224C35.6368 53.984 31.4608 57.44 26.2048 57.44ZM67.7483 65.72C77.4683 65.72 86.3243 60.536 86.3243 50.168C86.3243 44.696 83.8763 40.304 79.0523 37.712C82.0043 35.624 83.8763 32.528 83.8763 28.208C83.8763 19.352 76.1003 14.096 67.7483 14.096C59.3963 14.096 51.6203 19.352 51.6203 28.208C51.6203 32.528 53.4923 35.624 56.4443 37.712C51.6203 40.304 49.1723 44.696 49.1723 50.168C49.1723 60.608 58.1003 65.72 67.7483 65.72ZM67.7483 35.264C63.2843 35.264 60.2603 32.816 60.2603 28.784C60.2603 24.824 63.3563 22.376 67.7483 22.376C72.1403 22.376 75.2363 24.824 75.2363 28.784C75.2363 32.816 72.2123 35.264 67.7483 35.264ZM67.7483 57.512C62.1323 57.512 57.8123 54.776 57.8123 49.376C57.8123 44.12 61.9163 41.168 67.7483 41.168C73.5803 41.168 77.6843 44.12 77.6843 49.376C77.6843 54.776 73.3643 57.512 67.7483 57.512ZM138.524 65L119.372 33.824L138.02 14.816H126.212L103.676 38.432V14.816H94.6758V65H103.676V49.736L113.252 40.016L128.084 65H138.524Z" fill="#00BB98"/>
<path d="M46.9283 112H55.1483V110.02H49.0683V98.06H46.9283V112ZM56.9757 100.22H59.1757V98.06H56.9757V100.22ZM57.0557 112H59.1157V102.14H57.0557V112ZM62.2124 112H64.2724V109.12L66.0324 107.2L69.0924 112H71.5524L67.4324 105.92L71.0924 102.14H68.3124L64.2724 106.54V98.06H62.2124V112ZM80.8812 106.82C80.8812 104.24 79.4812 101.96 76.4212 101.96C73.2812 101.96 71.8412 104.48 71.8412 107.12C71.8412 109.82 73.3212 112.18 76.5812 112.18C78.2012 112.18 79.4412 111.66 80.5612 110.44L79.1212 109.2C78.3812 110.04 77.5612 110.32 76.6012 110.32C74.9212 110.32 73.9812 109.3 73.9012 107.72H80.8212C80.8612 107.42 80.8812 107.12 80.8812 106.82ZM73.9012 106.06C74.0412 104.84 74.8412 103.68 76.4212 103.68C77.8812 103.68 78.8612 104.62 78.9012 106.02V106.06H73.9012ZM86.1899 112.18C88.0699 112.18 89.9299 111.18 89.9299 108.98C89.9299 105.34 84.5899 106.42 84.5899 104.64C84.5899 104.04 85.1699 103.62 86.0899 103.62C87.2299 103.62 87.8499 104.24 88.2299 104.94L89.8299 104.06C89.1099 102.7 87.8299 101.96 86.1699 101.96C84.2299 101.96 82.6299 102.96 82.6299 104.8C82.6299 108.4 87.9099 107.12 87.9099 109.1C87.9099 109.8 87.2899 110.44 86.1099 110.44C84.7099 110.44 84.0499 109.56 83.7499 108.74L82.0899 109.48C82.5699 111.02 84.1499 112.18 86.1899 112.18Z" fill="#000B33"/>
</svg>
