<svg width="145" height="118" viewBox="0 0 145 118" fill="none" xmlns="http://www.w3.org/2000/svg">
<path d="M25.5528 14.816V17.84C25.5528 21.224 23.9688 22.664 20.5128 22.664H13.8168V29.864H25.5528V65H34.1928V14.816H25.5528ZM68.6083 65.72C82.0723 65.72 85.4563 52.4 85.4563 40.016C85.4563 27.488 81.9283 14.024 68.1043 14.024C52.9123 14.024 51.1843 29.216 51.1843 39.944C51.1843 50.528 53.0563 65.72 68.6083 65.72ZM68.3923 57.44C60.2563 57.44 60.0403 48.152 60.0403 39.944C60.0403 31.448 60.2563 22.304 68.1043 22.304C75.9523 22.304 76.1683 31.376 76.1683 39.872C76.1683 47.936 76.0243 57.44 68.3923 57.44ZM139.024 65L119.872 33.824L138.52 14.816H126.712L104.176 38.432V14.816H95.1758V65H104.176V49.736L113.752 40.016L128.584 65H139.024Z" fill="#FD4C5C"/>
<path d="M20.8545 102.5C20.0745 102.5 19.2145 102.68 18.3945 103.28L18.9945 100.04H24.8745V98.06H17.2945L15.9945 105.36L17.9545 105.86C18.4945 105.04 19.3545 104.42 20.5745 104.42C22.4345 104.42 23.3345 105.7 23.3345 107.18C23.3345 108.72 22.3545 110.22 20.4945 110.22C18.7745 110.22 17.7745 109.02 17.5945 107.7L15.5545 108.04C15.9145 110.34 17.8745 112.18 20.4945 112.18C23.4145 112.18 25.5145 109.84 25.5145 107.18C25.5145 104.64 23.5945 102.5 20.8545 102.5ZM37.2346 112.24C40.0946 112.24 41.9546 110.6 41.9546 108.08C41.9546 106.12 41.0146 105.04 37.9946 103.88C35.8546 103.06 35.0946 102.48 35.0946 101.44C35.0946 100.48 35.9346 99.7 37.0946 99.7C38.1146 99.7 39.0146 100.28 39.5346 101.34L41.3146 100.24C40.4546 98.62 38.9946 97.8 37.1546 97.8C34.6346 97.8 32.9546 99.28 32.9546 101.5C32.9546 103.46 33.9746 104.5 36.8546 105.6C39.0546 106.46 39.8146 107.12 39.8146 108.26C39.8146 109.52 38.8746 110.34 37.2746 110.34C35.5546 110.34 34.3746 109.32 34.1746 107.62L32.0346 108.14C32.4346 110.62 34.5146 112.24 37.2346 112.24ZM49.1041 110.22C48.6641 110.36 48.2641 110.44 47.9241 110.44C47.1441 110.44 46.6841 110.04 46.6841 109.2V103.8H49.1041V102.14H46.6841V98.48L44.6241 100.02V102.14H43.0041V103.8H44.6241V109.38C44.6241 111.36 45.8641 112.18 47.4241 112.18C47.9641 112.18 48.5441 112.08 49.1241 111.9L49.1041 110.22ZM55.1116 101.96C53.3516 101.96 51.9516 102.64 50.8116 104.04L52.3116 105.3C53.0516 104.28 54.0116 103.76 55.0916 103.76C56.3916 103.76 57.1716 104.52 57.1716 105.8V106.14H54.8716C53.4716 106.14 52.5516 106.3 51.8716 106.64C50.9916 107.08 50.5116 107.92 50.5116 109.04C50.5116 110.92 51.9116 112.18 54.0116 112.18C55.4116 112.18 56.5516 111.6 57.1916 110.6L57.3516 112H59.2316V105.8C59.2316 103.4 57.6716 101.96 55.1116 101.96ZM54.3916 110.44C53.2716 110.44 52.5716 109.92 52.5716 109.08C52.5716 108.66 52.7116 108.32 53.0116 108.12C53.3916 107.82 53.9716 107.72 55.1116 107.72H57.1716V107.76C57.1716 109.32 55.9916 110.44 54.3916 110.44ZM66.8371 101.96C65.7571 101.96 64.6171 102.52 64.1171 103.76V102.14H62.0371V112H64.0971V106.86C64.0971 104.9 64.9571 103.92 66.4371 103.92C66.8971 103.92 67.2771 104.04 67.6571 104.26L68.6571 102.46C68.0571 102.1 67.4771 101.96 66.8371 101.96ZM85.7416 112L81.9616 105.82C83.7016 105.3 84.6416 104 84.6416 102.02C84.6416 99.52 83.1616 98.06 79.9416 98.06H75.5816V112H77.7016V106.08H78.9616H79.8416L83.2416 112H85.7416ZM77.7016 104.12V100.04H79.7216C81.5416 100.04 82.4816 100.58 82.4816 102.06C82.4816 103.54 81.5416 104.12 79.7216 104.12H77.7016ZM91.2445 101.96C89.4845 101.96 88.0845 102.64 86.9445 104.04L88.4445 105.3C89.1845 104.28 90.1445 103.76 91.2245 103.76C92.5245 103.76 93.3045 104.52 93.3045 105.8V106.14H91.0045C89.6045 106.14 88.6845 106.3 88.0045 106.64C87.1245 107.08 86.6445 107.92 86.6445 109.04C86.6445 110.92 88.0445 112.18 90.1445 112.18C91.5445 112.18 92.6845 111.6 93.3245 110.6L93.4845 112H95.3645V105.8C95.3645 103.4 93.8045 101.96 91.2445 101.96ZM90.5245 110.44C89.4045 110.44 88.7045 109.92 88.7045 109.08C88.7045 108.66 88.8445 108.32 89.1445 108.12C89.5245 107.82 90.1045 107.72 91.2445 107.72H93.3045V107.76C93.3045 109.32 92.1245 110.44 90.5245 110.44ZM102.991 110.22C102.551 110.36 102.151 110.44 101.811 110.44C101.031 110.44 100.571 110.04 100.571 109.2V103.8H102.991V102.14H100.571V98.48L98.5109 100.02V102.14H96.8909V103.8H98.5109V109.38C98.5109 111.36 99.7509 112.18 101.311 112.18C101.851 112.18 102.431 112.08 103.011 111.9L102.991 110.22ZM105.199 100.22H107.399V98.06H105.199V100.22ZM105.279 112H107.339V102.14H105.279V112ZM115.556 101.96C114.276 101.96 113.156 102.42 112.476 103.36V102.14H110.416V112H112.476V107.9C112.476 105.8 112.836 103.76 114.956 103.76C116.656 103.76 116.876 105.1 116.876 106.26V112H118.936V105.74C118.936 103.32 117.736 101.96 115.556 101.96ZM125.463 110.6C124.163 110.42 123.083 110.2 123.083 109.4C123.083 109.1 123.223 108.88 123.483 108.72C124.063 108.98 124.703 109.14 125.423 109.14C127.563 109.14 129.323 107.76 129.323 105.62C129.323 104.96 129.163 104.36 128.863 103.84L130.263 102.7L129.183 101.38L127.723 102.64C127.063 102.2 126.243 101.96 125.363 101.96C123.183 101.96 121.423 103.42 121.423 105.5C121.423 106.36 121.723 107.14 122.243 107.76C121.603 108.24 121.263 108.86 121.263 109.7C121.263 110.72 121.763 111.32 122.483 111.7L121.003 112.74C120.983 112.84 120.963 112.94 120.963 113.18C120.963 115.18 122.623 116.26 125.503 116.26C128.103 116.26 129.943 115.4 129.943 113.4C129.943 111.12 127.443 110.88 125.463 110.6ZM125.403 103.68C126.543 103.68 127.263 104.42 127.263 105.56C127.263 106.64 126.623 107.44 125.383 107.44C124.143 107.44 123.463 106.62 123.463 105.56C123.463 104.44 124.243 103.68 125.403 103.68ZM125.583 114.68C124.283 114.68 123.003 114.36 123.003 113.34C123.003 113.3 123.003 113.24 123.023 113.16L124.023 112.18C124.363 112.24 124.703 112.3 125.023 112.34C126.523 112.56 127.883 112.68 127.883 113.58C127.883 114.36 126.843 114.68 125.583 114.68Z" fill="#000B33"/>
</svg>
