<svg width="60" height="60" viewBox="0 0 60 60" fill="none" xmlns="http://www.w3.org/2000/svg">
<path d="M34.291 7.1168V50.5488C34.291 54.1524 31.3695 57.0727 27.7672 57.0727H8.43008C4.82656 57.0727 1.90625 54.1524 1.90625 50.5488V7.1168C1.90625 5.57461 3.15547 4.32422 4.69883 4.32422H31.4984C33.0406 4.32422 34.291 5.57461 34.291 7.1168Z" fill="#F0F7FF"/>
<path d="M34.2045 7.29746V50.7295C34.2045 54.333 31.283 57.2533 27.6807 57.2533H18.0771V4.50488H31.4119C32.9541 4.50488 34.2045 5.75527 34.2045 7.29746Z" fill="#DFE7F4"/>
<path d="M30.6105 0H5.71758C2.57461 0 0 2.5418 0 5.71758V51.593C0 56.2289 3.77109 60 8.40703 60H27.9211C32.557 60 36.3281 56.2289 36.3281 51.593V5.71758C36.3281 2.55234 33.7652 0 30.6105 0V0ZM32.8125 51.593C32.8125 54.2906 30.6187 56.4844 27.9211 56.4844H8.40703C5.70937 56.4844 3.51562 54.2906 3.51562 51.593V6.08086L6.0832 8.67188C7.25391 9.86367 8.88281 10.5469 10.5527 10.5469H25.7754C27.4453 10.5469 29.0742 9.86367 30.2391 8.67773L32.8125 6.08203V51.593Z" fill="#0D527C"/>
<path d="M42.0078 36.9992C41.5579 36.9992 41.1081 36.8276 40.7649 36.4844C40.0784 35.7979 40.0784 34.685 40.7649 33.9985C41.8331 32.9301 42.4215 31.5099 42.4215 29.9996C42.4215 28.4893 41.8331 27.0691 40.7648 26.0007C40.0784 25.3142 40.0784 24.2013 40.7648 23.5148C41.4513 22.8284 42.5643 22.8284 43.2507 23.5148C44.9831 25.2472 45.9371 27.5502 45.9371 29.9996C45.9371 32.4489 44.9831 34.752 43.2508 36.4843C42.9075 36.8275 42.4577 36.9992 42.0078 36.9992Z" fill="#525CDD"/>
<path d="M46.9804 41.9711C46.5307 41.9711 46.081 41.7997 45.7378 41.4565C45.0512 40.7703 45.0509 39.6572 45.7373 38.9706C48.1334 36.5733 49.4531 33.3872 49.4531 29.9992C49.4531 26.6112 48.1334 23.4251 45.7372 21.0278C45.0509 20.3412 45.0512 19.2282 45.7377 18.5419C46.4244 17.8556 47.5373 17.8559 48.2236 18.5424C51.2836 21.6037 52.9687 25.6724 52.9687 29.9992C52.9687 34.326 51.2836 38.3948 48.2237 41.4561C47.8804 41.7994 47.4304 41.9711 46.9804 41.9711Z" fill="#525CDD" fill-opacity="0.6"/>
<path d="M51.9512 46.9425C51.5012 46.9425 51.0513 46.7709 50.708 46.4275C50.0217 45.7409 50.0219 44.628 50.7084 43.9416C54.4329 40.2183 56.484 35.2669 56.484 29.9996C56.484 24.7322 54.4329 19.7808 50.7084 16.0575C50.0218 15.3712 50.0217 14.2582 50.708 13.5716C51.3944 12.885 52.5073 12.885 53.1939 13.5713C57.5826 17.9585 59.9996 23.793 59.9996 29.9996C59.9996 36.2062 57.5826 42.0406 53.1939 46.4278C52.8507 46.771 52.4009 46.9425 51.9512 46.9425Z" fill="#525CDD" fill-opacity="0.2"/>
<path d="M25.267 39.5234V39.5469C25.2775 41.1371 24.6682 42.6359 23.5514 43.768C22.5682 44.7629 21.2967 45.3687 19.9221 45.507V48.2141C19.9221 49.1855 19.1346 49.9719 18.1643 49.9719C17.1939 49.9719 16.4064 49.1855 16.4064 48.2141V45.5187C13.4334 45.2082 11.099 42.6969 11.0803 39.6383C11.0732 38.668 11.8561 37.8758 12.8264 37.8699H12.8381C13.8037 37.8699 14.5889 38.6504 14.5947 39.6172C14.6041 40.9543 15.6939 42.0359 17.0287 42.0359H17.0439L18.1643 42.0289L19.3326 42.0219C19.983 42.0184 20.5924 41.7605 21.0494 41.2977C21.5064 40.8348 21.7561 40.2219 21.7514 39.5715V39.548C21.7455 38.7852 21.3775 38.0609 20.7646 37.6074L18.1643 35.6832L13.4721 32.2109C11.9627 31.093 11.0615 29.3059 11.0615 27.4285C11.0615 24.3523 13.4088 21.8129 16.4064 21.5094V18.8164C16.4064 17.8449 17.1939 17.0586 18.1643 17.0586C19.1346 17.0586 19.9221 17.8449 19.9221 18.8164V21.5117C22.9127 21.8223 25.2529 24.357 25.2529 27.4285C25.2529 28.3988 24.4654 29.1863 23.4951 29.1863C22.5236 29.1863 21.7373 28.3988 21.7373 27.4285C21.7373 26.0867 20.6451 24.9945 19.3033 24.9945H17.0111C15.6693 24.9945 14.5771 26.0867 14.5771 27.4285C14.5771 28.1961 14.9463 28.9273 15.5639 29.3844L18.1643 31.3086L22.8564 34.782C24.3529 35.8895 25.2541 37.6613 25.267 39.5234Z" fill="#FABE2C"/>
<path d="M36.3281 5.71758V51.593C36.3281 56.2289 32.557 60 27.9211 60H18.1641V56.4844H27.9211C30.6187 56.4844 32.8125 54.2906 32.8125 51.593V6.08203L30.2391 8.67773C29.0742 9.86367 27.4453 10.5469 25.7754 10.5469H18.1641V0H30.6105C33.7652 0 36.3281 2.55234 36.3281 5.71758Z" fill="#003B60"/>
<path d="M19.3031 24.9945H18.1641V17.0586C19.1344 17.0586 19.9219 17.8449 19.9219 18.8164V21.5117C22.9125 21.8223 25.2527 24.357 25.2527 27.4285C25.2527 28.3988 24.4652 29.1863 23.4949 29.1863C22.5234 29.1863 21.7371 28.3988 21.7371 27.4285C21.7371 26.0867 20.6449 24.9945 19.3031 24.9945Z" fill="#FF9100"/>
<path d="M25.2668 39.5234V39.5469C25.2773 41.1371 24.668 42.6359 23.5512 43.768C22.568 44.7629 21.2965 45.3687 19.9219 45.507V48.2141C19.9219 49.1855 19.1344 49.9719 18.1641 49.9719V42.0289L19.3324 42.0219C19.9828 42.0184 20.5922 41.7605 21.0492 41.2977C21.5062 40.8348 21.7559 40.2219 21.7512 39.5715V39.548C21.7453 38.7852 21.3773 38.0609 20.7645 37.6074L18.1641 35.6832V31.3086L22.8562 34.782C24.3527 35.8895 25.2539 37.6613 25.2668 39.5234Z" fill="#FF9100"/>
</svg>
