<svg width="60" height="60" viewBox="0 0 60 60" fill="none" xmlns="http://www.w3.org/2000/svg">
<path d="M45.6749 16.8026L26.969 47.2043C26.7018 47.6379 26.26 47.9344 25.7573 48.0176C10.6116 50.5182 11.603 50.3659 11.3921 50.3659C10.3147 50.3659 9.4797 49.397 9.65783 48.3223L11.9827 34.2429C12.0659 33.7389 12.3636 33.296 12.7995 33.0301L43.2599 14.3829C43.9396 13.9658 44.8148 14.0607 45.3902 14.6103C45.4008 14.6197 45.4113 14.6302 45.4219 14.6408C45.996 15.2159 46.1003 16.1101 45.6749 16.8026Z" fill="#DFE7F4"/>
<path d="M45.6749 16.8029L26.969 47.2046C26.7018 47.6382 26.26 47.9347 25.7573 48.0179C10.6116 50.5185 11.603 50.3662 11.3921 50.3662C10.9022 50.3662 10.4651 50.1681 10.1499 49.8506L45.3901 14.6104C45.4007 14.6197 45.4112 14.6303 45.4218 14.6408C45.996 15.2162 46.1003 16.1104 45.6749 16.8029Z" fill="#C7CFE1"/>
<path d="M59.889 2.36919L39.081 58.851C38.6392 60.0509 37.0971 60.3919 36.1877 59.4861C20.5334 43.8318 21.4768 44.8677 21.2823 44.3556C20.8205 43.1239 20.6389 43.847 34.6118 25.3885C16.0477 39.4409 17.2359 38.6032 16.7953 38.7496C16.1706 38.9395 15.5157 38.7965 15.02 38.3184L0.514015 23.8124C-0.39419 22.9007 -0.0473144 21.361 1.14917 20.9192L57.6309 0.1111C58.3329 -0.146713 59.0265 0.0665689 59.48 0.520085C59.9336 0.973602 60.1468 1.66735 59.889 2.36919Z" fill="#7ED8F6"/>
<path d="M59.8888 2.36864L39.0807 58.8504C38.639 60.0503 37.0969 60.3913 36.1875 59.4856C20.5332 43.8313 21.4766 44.8671 21.282 44.355C20.8203 43.1234 20.6387 43.8464 34.6116 25.3879L59.48 0.519531C59.9334 0.973048 60.1466 1.6668 59.8888 2.36864Z" fill="#6AA9FF"/>
</svg>
