<svg width="60" height="60" viewBox="0 0 60 60" fill="none" xmlns="http://www.w3.org/2000/svg">
<path d="M60 56.47V58.3107C60 59.2428 59.2462 59.9997 58.3179 59.9997H41.2046C40.2752 59.9997 39.5225 59.2428 39.5225 58.3107V56.47C39.5225 51.5016 43.5327 47.4736 48.4806 47.4736H51.0406C55.9886 47.4736 60 51.5016 60 56.47Z" fill="#7ED8F6"/>
<path d="M49.7614 47.4738C53.0862 47.4738 55.7815 44.7674 55.7815 41.4288C55.7815 38.0902 53.0862 35.3838 49.7614 35.3838C46.4365 35.3838 43.7412 38.0902 43.7412 41.4288C43.7412 44.7674 46.4365 47.4738 49.7614 47.4738Z" fill="#FFBFAB"/>
<path d="M40.2726 21.0852V22.9259C40.2726 23.8592 39.5199 24.6149 38.5905 24.6149H21.477C20.5476 24.6149 19.7949 23.8592 19.7949 22.9259V21.0852C19.7949 16.1168 23.8064 12.0889 28.7543 12.0889H31.313C36.2611 12.0888 40.2726 16.1168 40.2726 21.0852Z" fill="#59C36A"/>
<path d="M36.054 6.04383C36.054 9.38309 33.3582 12.0888 30.0338 12.0888C26.7095 12.0888 24.0137 9.38309 24.0137 6.04383C24.0138 2.70574 26.7096 0 30.0339 0C33.3583 0 36.054 2.70574 36.054 6.04383Z" fill="#FFBFAB"/>
<path d="M20.4776 56.47V58.3107C20.4776 59.2428 19.7249 59.9997 18.7955 59.9997H1.68211C0.752695 59.9997 0 59.2428 0 58.3107V56.47C0 51.5016 4.01145 47.4736 8.95934 47.4736H11.5193C16.4673 47.4736 20.4776 51.5016 20.4776 56.47Z" fill="#FF4D4D"/>
<path d="M10.2389 47.4738C13.5637 47.4738 16.2591 44.7674 16.2591 41.4288C16.2591 38.0902 13.5637 35.3838 10.2389 35.3838C6.91407 35.3838 4.21875 38.0902 4.21875 41.4288C4.21875 44.7674 6.91407 47.4738 10.2389 47.4738Z" fill="#FFBFAB"/>
<path d="M38.223 46.1445C35.6045 47.0084 32.8502 47.4503 30.0338 47.461H29.9379C27.1883 47.461 24.4925 47.0472 21.9243 46.2316C20.9996 45.9378 20.4869 44.948 20.7795 44.0195C21.0722 43.0909 22.0578 42.5761 22.9825 42.87C25.2078 43.5764 27.5489 43.9349 29.938 43.9349C29.9696 43.9349 30.0023 43.9349 30.034 43.9337C32.4768 43.9255 34.8624 43.5423 37.1274 42.7948C38.0486 42.4903 39.0413 42.9946 39.3433 43.9197C39.6464 44.8445 39.1442 45.8412 38.223 46.1445Z" fill="#DFE7F4"/>
<path d="M7.87728 29.3571C7.77287 29.3571 7.66728 29.3478 7.56088 29.3283C6.60685 29.1539 5.97416 28.236 6.14783 27.278C6.64693 24.5243 7.58947 21.853 8.9492 19.3385C10.2612 16.9121 11.9098 14.73 13.8489 12.853C14.5471 12.1773 15.6587 12.1978 16.3317 12.8989C17.0047 13.6 16.9842 14.7161 16.2861 15.3919C14.6058 17.0181 13.1757 18.9121 12.0353 21.0211C10.8536 23.2065 10.0352 25.5242 9.60287 27.9094C9.44842 28.7605 8.70943 29.3571 7.87728 29.3571Z" fill="#DFE7F4"/>
<path d="M52.1901 29.3572C51.358 29.3572 50.619 28.7608 50.4646 27.9094C50.0323 25.5242 49.2139 23.2066 48.0322 21.0212C46.8917 18.9121 45.4616 17.0182 43.7814 15.3919C43.0832 14.7162 43.0628 13.6 43.7358 12.8989C44.4089 12.1979 45.5204 12.1773 46.2186 12.8531C48.1577 14.7301 49.8063 16.9121 51.1183 19.3386C52.478 21.8532 53.4206 24.5244 53.9197 27.278C54.0933 28.236 53.4607 29.154 52.5066 29.3284C52.4002 29.3477 52.2944 29.3572 52.1901 29.3572Z" fill="#C7CFE1"/>
<path d="M36.0543 6.04383C36.0543 9.38309 33.3586 12.0888 30.0342 12.0888V0C33.3587 0 36.0543 2.70574 36.0543 6.04383Z" fill="#F89580"/>
<path d="M40.273 21.0854V22.926C40.273 23.8593 39.5203 24.615 38.5909 24.615H30.0342V12.0889H31.3136C36.2614 12.0889 40.273 16.117 40.273 21.0854Z" fill="#00A66C"/>
<path d="M38.2234 46.1446C35.6048 47.0085 32.8505 47.4504 30.0342 47.4611V43.9337C32.4771 43.9255 34.8627 43.5423 37.1277 42.7948C38.0489 42.4903 39.0416 42.9946 39.3436 43.9197C39.6467 44.8446 39.1446 45.8413 38.2234 46.1446Z" fill="#C7CFE1"/>
<path d="M16.2584 41.4288C16.2584 44.7669 13.5627 47.4738 10.2383 47.4738V35.3838C13.5627 35.3838 16.2584 38.0907 16.2584 41.4288Z" fill="#F89580"/>
<path d="M20.4771 56.47V58.3107C20.4771 59.2428 19.7244 59.9997 18.795 59.9997H10.2383V47.4736H11.5189C16.4668 47.4736 20.4771 51.5016 20.4771 56.47Z" fill="#CD0000"/>
<path d="M60.0005 56.47V58.3107C60.0005 59.2428 59.2466 59.9997 58.3184 59.9997H49.7617V47.4736H51.0412C55.9891 47.4736 60.0005 51.5016 60.0005 56.47Z" fill="#6AA9FF"/>
<path d="M55.7819 41.4288C55.7819 44.7669 53.0861 47.4738 49.7617 47.4738V35.3838C53.0861 35.3838 55.7819 38.0907 55.7819 41.4288Z" fill="#F89580"/>
</svg>
