<svg width="52" height="49" viewBox="0 0 52 49" fill="none" xmlns="http://www.w3.org/2000/svg">
<path d="M22.4649 20.9745C22.1262 20.9745 21.7856 20.8621 21.5026 20.6314L8.657 10.1502C8.00518 9.61828 7.90788 8.65862 8.43976 8.00669C8.97164 7.35476 9.93141 7.25746 10.5832 7.78945L23.4288 18.2707C24.0807 18.8026 24.178 19.7622 23.6461 20.4141C23.345 20.7831 22.9068 20.9745 22.4649 20.9745Z" fill="#5E54AC"/>
<path d="M29.5351 20.9745C29.0932 20.9745 28.655 20.7833 28.3538 20.4141C27.8219 19.7622 27.9192 18.8025 28.5711 18.2706L41.4167 7.78941C42.0687 7.25752 43.0284 7.35472 43.5601 8.00665C44.092 8.65857 43.9947 9.61824 43.3429 10.1501L30.4973 20.6313C30.2144 20.8622 29.8737 20.9745 29.5351 20.9745Z" fill="#453D81"/>
<path d="M51.5927 42.3518L45.9806 47.9639C45.4406 48.5058 44.5579 48.5093 44.0145 47.9639L39.7854 43.7339L37.5837 47.455C36.9591 48.5109 35.3624 48.2945 35.0447 47.1073L29.9082 27.9813C29.6313 26.9494 30.5776 26.0009 31.612 26.2784L50.7352 31.4149C51.922 31.7325 52.1397 33.3278 51.0829 33.9549L47.3628 36.1547L51.5927 40.3856C52.1351 40.9289 52.1351 41.8086 51.5927 42.3518Z" fill="#4793FF"/>
<path d="M27.3984 28.2446C30.6686 27.4716 32.693 24.1939 31.92 20.9236C31.147 17.6534 27.8693 15.629 24.599 16.402C21.3288 17.1751 19.3044 20.4528 20.0774 23.7231C20.8504 26.9933 24.1281 29.0177 27.3984 28.2446Z" fill="#FFE14D"/>
<path d="M12.1702 6.08561C12.1702 9.44123 9.44123 12.1712 6.08561 12.1712C2.72999 12.1712 0 9.44123 0 6.08561C0 2.72999 2.72999 0 6.08561 0C9.44123 0 12.1702 2.72999 12.1702 6.08561Z" fill="#FFE14D"/>
<path d="M52.0003 6.08561C52.0003 9.44123 49.2703 12.1712 45.9147 12.1712C42.5591 12.1712 39.8301 9.44123 39.8301 6.08561C39.8301 2.72999 42.5591 0 45.9147 0C49.2703 0 52.0003 2.72999 52.0003 6.08561Z" fill="#FABE2C"/>
<path d="M15.3447 23.8594H10.792C9.95065 23.8594 9.26855 23.1773 9.26855 22.3359C9.26855 21.4946 9.95065 20.8125 10.792 20.8125H15.3447C16.1861 20.8125 16.8682 21.4946 16.8682 22.3359C16.8682 23.1773 16.1861 23.8594 15.3447 23.8594Z" fill="#4793FF"/>
<path d="M27.5234 32.9912V37.5432C27.5234 38.3852 26.8409 39.0667 26 39.0667C25.1591 39.0667 24.4766 38.3852 24.4766 37.5432V32.9912C24.4766 32.1493 25.1591 31.4678 26 31.4678C26.8409 31.4678 27.5234 32.1493 27.5234 32.9912Z" fill="#4793FF"/>
<path d="M15.2315 34.6527C14.8422 34.6527 14.4529 34.5044 14.1554 34.2078C13.5598 33.6135 13.5587 32.6489 14.153 32.0533L17.3685 28.8303C17.9628 28.2347 18.9273 28.2335 19.5231 28.8277C20.1186 29.422 20.1197 30.3866 19.5255 30.9822L16.3099 34.2052C16.0124 34.5035 15.6219 34.6527 15.2315 34.6527Z" fill="#4793FF"/>
<path d="M32.0856 22.3356C32.0856 25.6912 29.3556 28.4212 26 28.4212V16.25C29.3556 16.25 32.0856 18.98 32.0856 22.3356Z" fill="#FABE2C"/>
<path d="M27.5234 32.9912V37.5432C27.5234 38.3852 26.8409 39.0667 26 39.0667V31.4678C26.8409 31.4678 27.5234 32.1493 27.5234 32.9912Z" fill="#525CDD"/>
</svg>
