<svg width="47" height="48" viewBox="0 0 47 48" fill="none" xmlns="http://www.w3.org/2000/svg">
<path d="M9.70959 46.5936H2.8125V40.5262C2.8125 39.7113 3.47306 39.0508 4.28794 39.0508H8.23416C9.04903 39.0508 9.70959 39.7113 9.70959 40.5262V46.5936Z" fill="#FFE14D"/>
<path d="M16.6071 46.5937H9.70996V33.3524C9.70996 32.5375 10.3705 31.877 11.1854 31.877H15.1316C15.9465 31.877 16.6071 32.5375 16.6071 33.3524V46.5937Z" fill="#BDE239"/>
<path d="M23.5045 46.5938H16.6074V25.3817C16.6074 24.5668 17.268 23.9062 18.0829 23.9062H22.0291C22.844 23.9062 23.5045 24.5668 23.5045 25.3817V46.5938Z" fill="#FFE14D"/>
<path d="M30.401 46.5937H23.5039V33.3524C23.5039 32.5375 24.1645 31.877 24.9793 31.877H28.9256C29.7404 31.877 30.401 32.5375 30.401 33.3524V46.5937Z" fill="#8BBC43"/>
<path d="M37.2985 46.5938H30.4014V25.4754C30.4014 24.6606 31.0619 24 31.8768 24H35.823C36.6379 24 37.2985 24.6606 37.2985 25.4754V46.5938Z" fill="#FABE2C"/>
<path d="M44.1949 46.5938H37.2979V14.1317C37.2979 13.3168 37.9584 12.6562 38.7733 12.6562H42.7195C43.5344 12.6562 44.1949 13.3168 44.1949 14.1317V46.5938Z" fill="#8BBC43"/>
<path d="M46.3884 46.5938C46.3884 47.37 45.7584 48 44.9822 48H1.40625C0.63 48 0 47.37 0 46.5938V8.4375C0 7.66125 0.63 7.03125 1.40625 7.03125C2.18344 7.03125 2.8125 7.66125 2.8125 8.4375V45.1875H44.9822C45.7584 45.1875 46.3884 45.8175 46.3884 46.5938Z" fill="#5E54AC"/>
<path d="M43.0628 1.40625V6.00563C43.0628 6.78281 42.4338 7.41188 41.6566 7.41188C40.8803 7.41188 40.2503 6.78281 40.2503 6.00563V4.80094L26.5966 18.4556C26.0903 18.9609 25.2859 19.0069 24.7262 18.5616C24.1 18.0628 23.8206 17.8406 23.5037 17.5884C22.7959 17.0259 21.8997 16.3125 16.5381 12.0478L7.97688 20.6081C7.4275 21.1575 6.53781 21.1584 5.9875 20.6081C5.43906 20.0597 5.43906 19.1691 5.9875 18.6197L15.4366 9.17063C15.9419 8.66531 16.7472 8.61938 17.3069 9.06469C21.7609 12.6084 22.6506 13.3163 23.5037 13.9959C23.9781 14.3719 24.4403 14.7403 25.495 15.5794L38.2619 2.8125H37.0572C36.28 2.8125 35.6509 2.1825 35.6509 1.40625C35.6509 0.63 36.28 0 37.0572 0H41.6566C42.3541 0 43.0628 0.3975 43.0628 1.40625Z" fill="#5E54AC"/>
<path d="M24.7264 18.5616C24.1002 18.0628 23.8208 17.8406 23.5039 17.5884V13.9959C23.9783 14.3719 24.4405 14.7403 25.4952 15.5794L38.262 2.8125H37.0573C36.2802 2.8125 35.6511 2.1825 35.6511 1.40625C35.6511 0.63 36.2802 0 37.0573 0H41.6567C42.3542 0 43.063 0.3975 43.063 1.40625V6.00562C43.063 6.78281 42.4339 7.41187 41.6567 7.41187C40.8805 7.41187 40.2505 6.78281 40.2505 6.00562V4.80094L26.5967 18.4556C26.0905 18.9609 25.2861 19.0069 24.7264 18.5616Z" fill="#453D81"/>
<path d="M46.3883 46.5938C46.3883 47.37 45.7583 48 44.982 48H23.5039V45.1875H44.982C45.7583 45.1875 46.3883 45.8175 46.3883 46.5938Z" fill="#453D81"/>
</svg>
