<svg width="44" height="48" viewBox="0 0 44 48" fill="none" xmlns="http://www.w3.org/2000/svg">
<path d="M42.3722 12C40.7606 9.20811 37.0012 7.99592 31.785 8.58655C28.635 8.9428 25.1391 9.92905 21.5878 11.4403C19.7137 12.2381 17.8247 13.1822 15.9628 14.2575C10.5731 17.369 6.01875 21.2287 3.14062 25.124C0.0215628 29.3456 -0.808125 33.2081 0.803438 36C2.77313 39.4109 7.46578 39.8571 11.3906 39.4134C14.5406 39.0572 18.0366 38.0709 21.5878 36.5597C23.4619 35.7619 25.3509 34.8178 27.2128 33.7425C32.6025 30.6309 37.1569 26.7712 40.035 22.8759C43.1541 18.6544 43.9837 14.7919 42.3722 12ZM37.7728 21.2044C36.4453 23.0006 34.7203 24.795 32.6925 26.5059C30.6656 28.2178 28.3378 29.8453 25.8066 31.3069C24.4059 32.115 22.9931 32.8444 21.5878 33.4865C17.9109 35.1675 14.2847 36.255 11.0738 36.6187C7.09781 37.0687 4.24219 36.3309 3.23906 34.5937C2.23594 32.8565 3.02438 30.014 5.40281 26.7956C8.05688 23.204 12.3066 19.6162 17.3691 16.6931C18.7697 15.885 20.1825 15.1556 21.5878 14.5134C25.2647 12.8325 28.8909 11.745 32.1019 11.3812C34.6937 11.089 38.6314 11.1464 39.9366 13.4062C40.9397 15.1434 40.1512 17.9859 37.7728 21.2044Z" fill="#BDE239"/>
<path d="M40.0351 22.8759C37.157 26.7712 32.6026 30.6309 27.2129 33.7425C25.351 34.8178 23.462 35.7619 21.5879 36.5597V33.4865C22.9932 32.8444 24.406 32.115 25.8066 31.3069C28.3379 29.8453 30.6657 28.2178 32.6926 26.5059C34.7204 24.795 36.4454 23.0006 37.7729 21.2044C40.1513 17.9859 40.9398 15.1434 39.9366 13.4062C38.6318 11.147 34.6959 11.0888 32.102 11.3812C28.891 11.745 25.2648 12.8325 21.5879 14.5134V11.4403C25.1391 9.92905 28.6351 8.9428 31.7851 8.58655C37.0013 7.99592 40.7607 9.20811 42.3723 12C43.9838 14.7919 43.1541 18.6544 40.0351 22.8759Z" fill="#8BBC43"/>
<path d="M40.035 25.124C37.1569 21.2287 32.6025 17.369 27.2128 14.2575C25.3509 13.1822 23.4619 12.2381 21.5878 11.4403C18.0366 9.92905 14.5406 8.9428 11.3906 8.58655C6.17531 7.99592 2.415 9.20811 0.803438 12C-0.808125 14.7919 0.0215628 18.6544 3.14062 22.8759C6.01875 26.7712 10.5731 30.6309 15.9628 33.7425C17.8247 34.8178 19.7137 35.7619 21.5878 36.5597C25.1391 38.0709 28.635 39.0572 31.785 39.4134C35.705 39.8561 40.4025 39.4132 42.3722 36C43.9837 33.2081 43.1541 29.3456 40.035 25.124ZM39.9366 34.5937C38.9334 36.3309 36.0778 37.0687 32.1019 36.6187C29.8828 36.3675 27.465 35.7703 24.9694 34.8703C23.8537 34.4681 22.7231 34.0059 21.5878 33.4865C20.1825 32.8444 18.7697 32.115 17.3691 31.3069C12.3066 28.3837 8.05688 24.7959 5.40281 21.2044C3.02438 17.9859 2.23594 15.1434 3.23906 13.4062C4.54387 11.147 8.48119 11.0885 11.0738 11.3812C14.2847 11.745 17.9109 12.8325 21.5878 14.5134C22.9931 15.1556 24.4059 15.885 25.8066 16.6931C30.8691 19.6162 35.1187 23.204 37.7728 26.7956C40.1512 30.014 40.9397 32.8565 39.9366 34.5937Z" fill="#DF5CCB"/>
<path d="M21.5879 28.2188C23.9178 28.2188 25.8066 26.33 25.8066 24C25.8066 21.67 23.9178 19.7812 21.5879 19.7812C19.2579 19.7812 17.3691 21.67 17.3691 24C17.3691 26.33 19.2579 28.2188 21.5879 28.2188Z" fill="#FABE2C"/>
<path d="M29.8379 7.4625C27.7407 2.65031 24.811 0 21.5879 0C18.3648 0 15.4351 2.65031 13.3379 7.4625C11.4038 11.9025 10.3379 17.7759 10.3379 24C10.3379 30.2241 11.4038 36.0975 13.3379 40.5375C15.4351 45.3497 18.3648 48 21.5879 48C24.811 48 27.7407 45.3497 29.8379 40.5375C31.772 36.0975 32.8379 30.2241 32.8379 24C32.8379 17.7759 31.772 11.9025 29.8379 7.4625ZM27.2588 39.4144C25.6604 43.0838 23.5941 45.1875 21.5879 45.1875C19.5816 45.1875 17.5154 43.0838 15.917 39.4144C14.1329 35.3203 13.1504 29.8463 13.1504 24C13.1504 18.1537 14.1329 12.6797 15.917 8.58562C17.5154 4.91625 19.5816 2.8125 21.5879 2.8125C23.5941 2.8125 25.6604 4.91625 27.2588 8.58562C29.0429 12.6797 30.0254 18.1537 30.0254 24C30.0254 29.8463 29.0429 35.3203 27.2588 39.4144Z" fill="#4793FF"/>
<path d="M21.5879 28.2188V19.7812C23.9138 19.7812 25.8066 21.6741 25.8066 24C25.8066 26.3259 23.9138 28.2188 21.5879 28.2188Z" fill="#FF9100"/>
<path d="M42.3723 36.0001C40.4034 39.412 35.7083 39.8566 31.7851 39.4136C28.6351 39.0573 25.1391 38.0711 21.5879 36.5598V33.4867C22.7232 34.0061 23.8538 34.4682 24.9695 34.8704C27.4651 35.7704 29.8829 36.3676 32.102 36.6189C36.0779 37.0689 38.9335 36.3311 39.9366 34.5939C40.9398 32.8567 40.1513 30.0142 37.7729 26.7957C35.1188 23.2042 30.8691 19.6164 25.8066 16.6932C24.406 15.8851 22.9932 15.1557 21.5879 14.5136V11.4404C23.462 12.2382 25.351 13.1823 27.2129 14.2576C32.6026 17.3692 37.157 21.2289 40.0351 25.1242C43.1541 29.3457 43.9838 33.2082 42.3723 36.0001Z" fill="#C63EBA"/>
<path d="M32.8379 24C32.8379 30.2241 31.772 36.0975 29.8379 40.5375C27.7407 45.3497 24.811 48 21.5879 48V45.1875C23.5941 45.1875 25.6604 43.0838 27.2588 39.4144C29.0429 35.3203 30.0254 29.8463 30.0254 24C30.0254 18.1537 29.0429 12.6797 27.2588 8.58562C25.6604 4.91625 23.5941 2.8125 21.5879 2.8125V0C24.811 0 27.7407 2.65031 29.8379 7.4625C31.772 11.9025 32.8379 17.7759 32.8379 24Z" fill="#525CDD"/>
</svg>
