<svg width="108" height="31" viewBox="0 0 108 31" fill="none" xmlns="http://www.w3.org/2000/svg">
<circle cx="15.0351" cy="15.0351" r="15" transform="rotate(-0.134228 15.0351 15.0351)" fill="#FD4C5C"/>
<path d="M19.456 23.0703H22.72L16.048 6.34231H13.792L7.096 23.0703H10.36L11.632 19.6143H18.184L19.456 23.0703ZM12.664 16.8543L14.92 10.7583L17.176 16.8543H12.664Z" fill="white"/>
<path d="M42.4842 10.9983C41.2122 10.9983 39.8922 11.4063 39.0762 12.4143V11.2383H36.1962V27.9663H39.0762V21.8703C39.8202 22.7583 41.1402 23.3103 42.4842 23.3103C45.3882 23.3103 47.4762 21.0303 47.4762 17.1663C47.4762 13.6143 45.7002 10.9983 42.4842 10.9983ZM41.7642 20.7903C39.7002 20.7903 38.8122 19.2063 38.8122 17.1423C38.8122 15.0303 39.7002 13.5183 41.7882 13.5183C43.7082 13.5183 44.5962 14.8143 44.5962 17.1423C44.5962 19.4463 43.6842 20.7903 41.7642 20.7903ZM56.242 10.9983C54.97 10.9983 53.65 11.4063 52.834 12.4143V11.2383H49.954V27.9663H52.834V21.8703C53.578 22.7583 54.898 23.3103 56.242 23.3103C59.146 23.3103 61.234 21.0303 61.234 17.1663C61.234 13.6143 59.458 10.9983 56.242 10.9983ZM55.522 20.7903C53.458 20.7903 52.57 19.2063 52.57 17.1423C52.57 15.0303 53.458 13.5183 55.546 13.5183C57.466 13.5183 58.354 14.8143 58.354 17.1423C58.354 19.4463 57.442 20.7903 55.522 20.7903ZM76.9118 10.9983C75.3758 10.9983 74.0078 11.5503 73.0958 13.3263C72.3758 11.5023 70.9358 10.9983 69.6398 10.9983C68.4638 10.9983 67.2398 11.4063 66.4718 12.7263V11.2383H63.6878L63.7118 23.0703H66.5918V18.5583C66.5918 16.1823 66.5198 13.5183 68.9438 13.5183C70.8158 13.5183 70.9358 15.4623 70.9358 16.3983V23.0703H73.8158V18.5583C73.8158 16.1823 73.7198 13.5183 76.1438 13.5183C78.0398 13.5183 78.1598 15.4623 78.1598 16.3983V23.0703H81.0398V15.5343C81.0398 13.1583 79.7678 10.9983 76.9118 10.9983ZM88.6859 10.9983C86.5259 10.9983 84.7739 11.8383 83.3579 13.5423L85.4459 15.2943C86.3099 14.1423 87.4379 13.5183 88.6379 13.5183C90.0059 13.5183 90.8699 14.3103 90.8699 15.6063V15.9423H87.9179C86.5739 15.9423 85.5659 16.1103 84.7739 16.4703C83.6219 16.9983 82.9979 18.0543 82.9979 19.4463C82.9979 21.7023 84.7739 23.3103 87.2699 23.3103C88.8299 23.3103 90.1739 22.6383 90.8699 21.5343L91.1099 23.0703H93.7499V15.6063C93.7499 12.7503 91.8059 10.9983 88.6859 10.9983ZM87.7259 20.8623C86.5739 20.8623 85.8779 20.3343 85.8779 19.4943C85.8779 19.0623 86.0459 18.7263 86.3579 18.5103C86.7419 18.2223 87.3179 18.1023 88.3019 18.1023H90.8699C90.8699 19.6383 89.4539 20.8623 87.7259 20.8623ZM95.1736 23.0703H98.7016L101.15 19.0863L103.598 23.0703H107.126L103.046 17.1183L107.126 11.2383H103.598L101.15 15.1503L98.7016 11.2383H95.1736L99.2296 17.1183L95.1736 23.0703Z" fill="#000B33"/>
</svg>
